<svg xmlns="http://www.w3.org/2000/svg" xmlns:xlink="http://www.w3.org/1999/xlink" width="203" height="113"><defs><filter id="a" width="112.3%" height="122.9%" x="-6.2%" y="-11.4%" filterUnits="objectBoundingBox"><feOffset dy="2" in="SourceAlpha" result="shadowOffsetOuter1"/><feGaussianBlur in="shadowOffsetOuter1" result="shadowBlurOuter1" stdDeviation="2"/><feColorMatrix in="shadowBlurOuter1" result="shadowMatrixOuter1" values="0 0 0 0 0 0 0 0 0 0 0 0 0 0 0 0 0 0 0.5 0"/><feMerge><feMergeNode in="shadowMatrixOuter1"/><feMergeNode in="SourceGraphic"/></feMerge></filter><path id="b" d="M0 0h195v105H0z"/><radialGradient id="d" r="50.055%" fx="50%" fy="50%"><stop offset="1.685%" stop-color="#FECD00"/><stop offset="51.58%" stop-color="#FECB01"/><stop offset="69.56%" stop-color="#FDC705"/><stop offset="82.36%" stop-color="#FBBE0C"/><stop offset="92.65%" stop-color="#F9B313"/><stop offset="100%" stop-color="#F6A517"/></radialGradient><linearGradient id="e" x1="50%" x2="50%" y1="-1.772%" y2="93.921%"><stop offset="0%" stop-color="#FFF"/><stop offset="100%" stop-color="#FFF" stop-opacity="0"/></linearGradient><radialGradient id="f" cx="49.604%" cy="50.178%" r="50.901%" fx="49.604%" fy="50.178%" gradientTransform="matrix(.98667 0 0 1 .007 0)"><stop offset="1.685%" stop-color="#FFF"/><stop offset="45.76%" stop-color="#FDFDFD"/><stop offset="61.64%" stop-color="#F8F7F7"/><stop offset="72.95%" stop-color="#EEEDED"/><stop offset="82.1%" stop-color="#E0DEDE"/><stop offset="89.94%" stop-color="#CDCCCC"/><stop offset="96.76%" stop-color="#B6B6B6"/><stop offset="100%" stop-color="#A9A9A9"/></radialGradient><radialGradient id="g" cx="49.851%" cy="50.178%" r="50.9%" fx="49.851%" fy="50.178%" gradientTransform="matrix(.98667 0 0 1 .007 0)"><stop offset="1.685%" stop-color="#FFF"/><stop offset="45.76%" stop-color="#FDFDFD"/><stop offset="61.64%" stop-color="#F8F7F7"/><stop offset="72.95%" stop-color="#EEEDED"/><stop offset="82.1%" stop-color="#E0DEDE"/><stop offset="89.94%" stop-color="#CDCCCC"/><stop offset="96.76%" stop-color="#B6B6B6"/><stop offset="100%" stop-color="#A9A9A9"/></radialGradient><radialGradient id="h" cx="50.058%" cy="49.801%" r="50.706%" fx="50.058%" fy="49.801%" gradientTransform="matrix(.98667 0 0 1 .007 0)"><stop offset="18.51%" stop-color="#DF316D"/><stop offset="30.87%" stop-color="#DF366F" stop-opacity=".848"/><stop offset="41.8%" stop-color="#E14475" stop-opacity=".714"/><stop offset="52.21%" stop-color="#E3597F" stop-opacity=".587"/><stop offset="62.28%" stop-color="#E6738F" stop-opacity=".463"/><stop offset="72.11%" stop-color="#EB92A5" stop-opacity=".342"/><stop offset="81.77%" stop-color="#F2B5C0" stop-opacity=".224"/><stop offset="91.11%" stop-color="#F8DADE" stop-opacity=".109"/><stop offset="100%" stop-color="#FFF" stop-opacity="0"/></radialGradient><radialGradient id="i" cx="49.943%" cy="49.801%" r="50.706%" fx="49.943%" fy="49.801%" gradientTransform="matrix(.98667 0 0 1 .007 0)"><stop offset="18.51%" stop-color="#DF316D"/><stop offset="30.87%" stop-color="#DF366F" stop-opacity=".848"/><stop offset="41.8%" stop-color="#E14475" stop-opacity=".714"/><stop offset="52.21%" stop-color="#E3597F" stop-opacity=".587"/><stop offset="62.28%" stop-color="#E6738F" stop-opacity=".463"/><stop offset="72.11%" stop-color="#EB92A5" stop-opacity=".342"/><stop offset="81.77%" stop-color="#F2B5C0" stop-opacity=".224"/><stop offset="91.11%" stop-color="#F8DADE" stop-opacity=".109"/><stop offset="100%" stop-color="#FFF" stop-opacity="0"/></radialGradient></defs><g fill="none" fill-rule="evenodd"><g filter="url(#a)" transform="matrix(-1 0 0 1 199 2)"><mask id="c" fill="#fff"><use xlink:href="#b"/></mask><path fill="#FEFEFE" d="M141.145 0H72.3C42.68 0 18.445 22.992 18.445 51.094v1.35c-.06.385-.062.87 0 1.462 0 2.315.18 4.59.498 6.824.278 8.303-1.087 13.762-4.78 23.02C9.553 95.313 0 102.5 0 102.5s9.665 2.87 21.195-.88c7.436-2.418 12.385-6.982 14.964-9.917C45.734 99.955 58.427 105 72.301 105h68.844C170.765 105 195 82.008 195 53.906v-2.812C195 22.992 170.765 0 141.145 0" mask="url(#c)"/></g><g fill-rule="nonzero" transform="translate(60 25)"><circle cx="28.5" cy="28.5" r="28.5" fill="url(#d)"/><path fill="url(#e)" d="M50 21.5C50 33.34 40.412 43 28.5 43S7 33.34 7 21.5C7 9.588 16.66 0 28.5 0 40.412 0 50 9.588 50 21.5z" opacity=".5"/><path fill="#FFE64A" d="M37.85 44.375c0 1.35-1.05 2.4-2.4 2.4h-12.9a2.37 2.37 0 0 1-2.4-2.4c0-1.35 1.05-2.4 2.4-2.4h12.825c1.35 0 2.475 1.05 2.475 2.4z"/><path fill="#542F12" d="M37.85 43.85c0 1.35-1.05 2.4-2.4 2.4h-12.9a2.37 2.37 0 0 1-2.4-2.4c0-1.35 1.05-2.4 2.4-2.4h12.825c1.35 0 2.475 1.05 2.475 2.4z"/><path fill="#FECE4C" d="M25.544 23.396c0 4.426-3.676 8.053-8.162 8.053-4.485 0-8.161-3.627-8.161-8.053 0-4.425 3.676-8.053 8.161-8.053 4.56 0 8.162 3.628 8.162 8.053z"/><path fill="url(#f)" d="M15.882 8.416c0 4.135-3.382 7.472-7.573 7.472-4.191 0-7.574-3.337-7.574-7.472C.735 4.28 4.118.943 8.31.943c4.117 0 7.573 3.337 7.573 7.473z" transform="translate(9.147 14.98)"/><path fill="#000" d="M20.397 23.396c0 1.669-1.323 2.975-3.015 2.975-1.69 0-3.014-1.306-3.014-2.975s1.323-2.974 3.014-2.974c1.692.072 3.015 1.378 3.015 2.974z"/><path fill="#FFF" d="M18.044 23.396a.655.655 0 0 1-.662.653.655.655 0 0 1-.661-.653c0-.363.294-.653.661-.653.368 0 .662.29.662.653z"/><path fill="#FECE4C" d="M47.603 23.396c0 4.426-3.677 8.053-8.162 8.053-4.485 0-8.162-3.627-8.162-8.053 0-4.425 3.677-8.053 8.162-8.053 4.485 0 8.162 3.628 8.162 8.053z"/><path fill="url(#g)" d="M15.809 8.416c0 4.135-3.383 7.472-7.574 7.472-4.19 0-7.573-3.337-7.573-7.472C.662 4.28 4.044.943 8.235.943c4.191 0 7.574 3.337 7.574 7.473z" transform="translate(31.206 14.98)"/><path fill="#000" d="M42.382 23.396c0 1.669-1.323 2.975-3.014 2.975-1.692 0-3.015-1.306-3.015-2.975s1.323-2.974 3.015-2.974c1.69.072 3.014 1.378 3.014 2.974z"/><path fill="#FFF" d="M40.103 23.396a.655.655 0 0 1-.662.653.655.655 0 0 1-.662-.653c0-.363.295-.653.662-.653.368 0 .662.29.662.653z"/><path fill="#FFE64A" d="M34.662 8.524s.22-.146.662-.363c.44-.218 1.102-.363 1.911-.508.441-.073.883-.073 1.324-.073.441 0 .956.073 1.47.073.515.072 1.03.145 1.545.363.514.145 1.029.362 1.544.58.514.218.956.508 1.47.798.441.29.883.653 1.25 1.016.368.363.662.798.956 1.088.294.363.515.726.735 1.088.147.363.368.653.442 1.016.073.29.147.58.22.798.147.435.147.725.147.725s-.22-.145-.588-.435c-.147-.145-.441-.29-.662-.508-.22-.217-.514-.362-.809-.58a10.761 10.761 0 0 0-.955-.653c-.368-.218-.662-.508-1.03-.653l-1.103-.653a8.826 8.826 0 0 0-1.176-.58c-.368-.218-.81-.363-1.25-.58-.441-.218-.81-.29-1.25-.508a20.4 20.4 0 0 1-1.177-.436c-.367-.145-.735-.29-1.103-.363-.735-.217-1.323-.435-1.764-.507-.515 0-.81-.145-.81-.145z"/><path fill="#542F12" d="M34.882 8.233s.22-.145.662-.362c.441-.218 1.103-.363 1.912-.508.441-.073.882-.073 1.323-.073.442 0 .956.073 1.471.073.515.072 1.03.145 1.544.362.515.146 1.03.363 1.544.58.515.219.956.509 1.47.799.442.29.883.653 1.25 1.016.368.362.663.798.957 1.088.294.363.514.725.735 1.088.147.363.368.653.441 1.016.074.29.147.58.22.798.148.435.148.725.148.725s-.22-.145-.588-.435c-.147-.145-.442-.29-.662-.508-.22-.217-.515-.363-.809-.58a10.489 10.489 0 0 0-.956-.653c-.368-.218-.662-.508-1.03-.653l-1.102-.653a8.826 8.826 0 0 0-1.177-.58c-.367-.218-.809-.363-1.25-.58-.44-.218-.809-.291-1.25-.509-.44-.145-.809-.29-1.176-.435-.368-.145-.735-.29-1.103-.363-.735-.217-1.324-.435-1.765-.508a8.739 8.739 0 0 1-.809-.145z"/><path fill="#FFE64A" d="M22.235 8.524s-.22-.146-.661-.363c-.442-.218-1.103-.363-1.912-.508-.441-.073-.883-.073-1.324-.073-.44 0-.956.073-1.47.073-.515.072-1.03.145-1.544.363-.515.145-1.03.362-1.545.58-.514.218-.955.508-1.47.798a8.44 8.44 0 0 0-1.25 1.016c-.368.363-.662.798-.956 1.088a9.464 9.464 0 0 0-.735 1.088c-.147.363-.368.653-.442 1.016-.073.29-.147.58-.22.798-.147.435-.147.725-.147.725s.22-.145.588-.435c.147-.145.441-.29.662-.508.22-.217.515-.362.809-.58.294-.218.588-.435.956-.653.367-.218.661-.508 1.029-.653l1.103-.653a8.826 8.826 0 0 1 1.176-.58c.368-.218.81-.363 1.25-.58.442-.218.81-.29 1.25-.508.442-.146.81-.29 1.177-.436.367-.145.735-.29 1.103-.363.735-.217 1.323-.435 1.764-.507.515 0 .81-.145.81-.145z"/><path fill="#542F12" d="M22.015 8.233s-.22-.145-.662-.362c-.441-.146-1.103-.363-1.912-.436-.441-.072-.882-.072-1.323-.072-.442 0-.956.072-1.47.072-.516.073-1.03.145-1.545.363-.515.145-1.03.363-1.544.58-.515.218-.956.508-1.47.798a8.44 8.44 0 0 0-1.25 1.016c-.368.363-.663.798-.957 1.088-.294.363-.514.726-.735 1.089-.147.362-.368.653-.441 1.015-.074.29-.147.58-.22.798-.148.436-.148.726-.148.726s.22-.145.588-.435c.148-.146.442-.29.662-.508.22-.218.515-.363.81-.58.293-.218.587-.436.955-.654.368-.217.662-.507 1.03-.653l1.102-.653a8.826 8.826 0 0 1 1.177-.58c.367-.218.809-.363 1.25-.58.44-.218.809-.29 1.25-.508.44-.145.809-.29 1.176-.435.368-.146.736-.29 1.103-.363.735-.218 1.324-.435 1.765-.508.515-.145.809-.218.809-.218z"/><g opacity=".4" transform="translate(4 27.314)"><ellipse cx="41.765" cy="8.488" fill="url(#h)" rx="8.162" ry="8.053"/><ellipse cx="8.235" cy="8.488" fill="url(#i)" rx="8.162" ry="8.053"/></g></g></g></svg>